<svg id="aurora-egg" width="180" height="220" viewBox="0 0 180 220" xmlns="http://www.w3.org/2000/svg">
                        <defs>
                            <linearGradient id="grad-aurora" x1="0%" y1="0%" x2="100%" y2="100%">
                                <stop offset="0%" stop-color="rgba(168,85,247,1)"/>
                                <stop offset="20%" stop-color="rgba(59,130,246,1)"/>
                                <stop offset="40%" stop-color="rgba(16,185,129,1)"/>
                                <stop offset="60%" stop-color="rgba(245,158,11,1)"/>
                                <stop offset="80%" stop-color="rgba(239,68,68,1)"/>
                                <stop offset="100%" stop-color="rgba(168,85,247,1)"/>
                            </linearGradient>
                            <filter id="shadow-aurora">
                                <feDropShadow dx="0" dy="4" stdDeviation="10" flood-color="rgba(168,85,247,0.4)"/>
                            </filter>
                            <filter id="glow-aurora">
                                <feGaussianBlur stdDeviation="3"/>
                                <feMerge>
                                    <feMergeNode/>
                                    <feMergeNode in="SourceGraphic"/>
                                </feMerge>
                            </filter>
                        </defs>
                        <ellipse cx="90" cy="200" rx="35" ry="8" fill="url(#grad-aurora)" opacity="0.2"/>
                        <ellipse cx="90" cy="130" rx="55" ry="75" fill="url(#grad-aurora)" stroke="#ffffff" stroke-width="2" filter="url(#shadow-aurora)"/>
                        <!-- オーロラパターン -->
                        <path d="M35 105 Q90 95 145 105 Q135 120 90 130 Q45 120 35 105" fill="rgba(255,255,255,0.25)" filter="url(#glow-aurora)"/>
                        <path d="M40 140 Q90 130 140 140 Q130 155 90 165 Q50 155 40 140" fill="rgba(255,255,255,0.2)"/>
                        <path d="M45 170 Q90 160 135 170 Q125 180 90 185 Q55 180 45 170" fill="rgba(255,255,255,0.15)"/>
                        <!-- 虹色のキラキラ -->
                        <circle cx="70" cy="100" r="2" fill="#a855f7" opacity="0.8"/>
                        <circle cx="110" cy="120" r="1.5" fill="#3b82f6" opacity="0.7"/>
                        <circle cx="85" cy="150" r="1.8" fill="#10b981" opacity="0.8"/>
                        <circle cx="105" cy="170" r="1.2" fill="#f59e0b" opacity="0.6"/>
                        <circle cx="75" cy="180" r="1" fill="#ef4444" opacity="0.7"/>
                        <!-- ハイライト -->
                        <ellipse cx="75" cy="100" rx="10" ry="15" fill="rgba(255,255,255,0.5)"/>
                        <ellipse cx="78" cy="105" rx="3" ry="6" fill="rgba(255,255,255,0.8)"/>
                        <circle cx="80" cy="108" r="1" fill="rgba(255,255,255,1)"/>
                    </svg>