<svg id="fire-egg" width="180" height="220" viewBox="0 0 180 220" xmlns="http://www.w3.org/2000/svg">
                        <defs>
                            <radialGradient id="grad-fire" cx="35%" cy="25%">
                                <stop offset="0%" stop-color="rgba(254,243,199,1)"/>
                                <stop offset="30%" stop-color="rgba(254,215,170,1)"/>
                                <stop offset="70%" stop-color="rgba(251,146,60,1)"/>
                                <stop offset="100%" stop-color="rgba(220,38,38,1)"/>
                            </radialGradient>
                            <filter id="shadow-fire">
                                <feDropShadow dx="0" dy="4" stdDeviation="8" flood-color="rgba(220,38,38,0.3)"/>
                            </filter>
                        </defs>
                        <ellipse cx="90" cy="200" rx="35" ry="8" fill="rgba(220,38,38,0.15)"/>
                        <ellipse cx="90" cy="130" rx="55" ry="75" fill="url(#grad-fire)" stroke="#dc2626" stroke-width="2" filter="url(#shadow-fire)"/>
                        <!-- 炎パターン -->
                        <path d="M50 120 Q55 105 70 115 Q85 105 100 120 Q95 140 80 150 Q65 140 50 120" fill="rgba(220,38,38,0.4)"/>
                        <path d="M105 90 Q115 75 130 85 Q140 100 135 115 Q125 105 105 90" fill="rgba(251,146,60,0.5)"/>
                        <path d="M45 150 Q55 140 70 150 Q75 165 65 175 Q55 165 45 150" fill="rgba(239,68,68,0.3)"/>
                        <!-- 火花 -->
                        <circle cx="120" cy="100" r="1.5" fill="#facc15" opacity="0.8"/>
                        <circle cx="65" cy="95" r="1" fill="#facc15" opacity="0.9"/>
                        <circle cx="115" cy="140" r="1.2" fill="#fb7185" opacity="0.7"/>
                        <!-- ハイライト -->
                        <ellipse cx="75" cy="100" rx="8" ry="12" fill="rgba(255,255,255,0.6)"/>
                        <ellipse cx="78" cy="105" rx="2" ry="4" fill="rgba(255,255,255,1)"/>
                    </svg>