<svg id="natural-egg" width="180" height="220" viewBox="0 0 180 220" xmlns="http://www.w3.org/2000/svg">
                        <defs>
                            <radialGradient id="grad-natural" cx="35%" cy="25%">
                                <stop offset="0%" stop-color="rgba(240,253,244,1)"/>
                                <stop offset="40%" stop-color="rgba(220,252,231,1)"/>
                                <stop offset="100%" stop-color="rgba(187,247,208,1)"/>
                            </radialGradient>
                            <filter id="shadow-natural">
                                <feDropShadow dx="0" dy="4" stdDeviation="6" flood-color="rgba(34,197,94,0.2)"/>
                            </filter>
                        </defs>
                        <ellipse cx="90" cy="200" rx="35" ry="8" fill="rgba(34,197,94,0.1)"/>
                        <ellipse cx="90" cy="130" rx="55" ry="75" fill="url(#grad-natural)" stroke="#22c55e" stroke-width="2" filter="url(#shadow-natural)"/>
                        <!-- 葉っぱパターン -->
                        <path d="M45 125 Q65 115 85 125 Q80 140 65 150 Q50 140 45 125" fill="rgba(34,197,94,0.3)"/>
                        <path d="M95 100 Q120 90 145 100 Q140 115 120 125 Q100 115 95 100" fill="rgba(34,197,94,0.25)"/>
                        <path d="M50 160 Q70 155 90 160 Q85 170 70 175 Q55 170 50 160" fill="rgba(34,197,94,0.2)"/>
                        <!-- 葉脈 -->
                        <path d="M65 125 Q70 130 75 135" stroke="rgba(34,197,94,0.4)" stroke-width="1" fill="none"/>
                        <path d="M120 105 Q115 110 110 115" stroke="rgba(34,197,94,0.4)" stroke-width="1" fill="none"/>
                        <!-- ハイライト -->
                        <ellipse cx="70" cy="100" rx="10" ry="15" fill="rgba(255,255,255,0.7)"/>
                        <ellipse cx="75" cy="105" rx="3" ry="5" fill="rgba(255,255,255,1)"/>
                    </svg>